<svg width="50" height="38" viewBox="0 0 50 38" fill="none" xmlns="http://www.w3.org/2000/svg">
<path d="M49.1711 21.0529C49.7018 20.5175 50 19.7917 50 19.0351C50 18.2782 49.7018 17.5523 49.1711 17.0172L33.1518 0.871332C32.8904 0.598734 32.5781 0.381278 32.2326 0.231722C31.8871 0.0821367 31.5153 0.00339115 31.1395 0.000108902C30.7634 -0.00320189 30.3905 0.0690076 30.0425 0.212542C29.6945 0.356047 29.3781 0.567967 29.1125 0.835941C28.8466 1.10392 28.6362 1.42261 28.4938 1.77335C28.3513 2.12412 28.2797 2.49995 28.2831 2.87893C28.2865 3.2579 28.3644 3.63242 28.513 3.98062C28.6614 4.32885 28.8769 4.64378 29.1476 4.90707L40.3332 16.1809H2.83178C2.08076 16.1809 1.36047 16.4815 0.8294 17.0169C0.298356 17.5521 0 18.2782 0 19.0351C0 19.792 0.298356 20.5178 0.8294 21.0532C1.36047 21.5884 2.08076 21.8892 2.83178 21.8892H40.3332L29.1476 33.163C28.6317 33.7013 28.3462 34.4223 28.3528 35.1706C28.3593 35.919 28.6569 36.6348 29.1819 37.1639C29.7069 37.6931 30.4174 37.9933 31.1599 37.9999C31.9021 38.0062 32.6174 37.7185 33.1518 37.1988L49.1711 21.0529Z" fill="black"/>
</svg>
