<svg width="49" height="50" viewBox="0 0 49 50" fill="none" xmlns="http://www.w3.org/2000/svg">
<path d="M0 42.1053V18.4212C0 16.3274 0.815713 14.32 2.26665 12.8394C3.71759 11.3589 5.6849 10.5265 7.73684 10.5265H10.3158C11.7401 10.5265 12.8947 11.7047 12.8947 13.1581C12.8947 14.6115 11.7401 15.7897 10.3158 15.7897H7.73684C7.05286 15.7897 6.39709 16.0671 5.91345 16.5606C5.4298 17.0541 5.15789 17.7233 5.15789 18.4212V42.1053L5.17049 42.3649C5.229 42.9675 5.49013 43.534 5.91345 43.9659C6.39709 44.4594 7.05286 44.7369 7.73684 44.7369H30.9474C31.6313 44.7369 32.2871 44.4594 32.7708 43.9659C33.2544 43.4724 33.5263 42.8032 33.5263 42.1053V39.4737C33.5263 38.0204 34.6809 36.8422 36.1053 36.8422C37.5296 36.8422 38.6842 38.0204 38.6842 39.4737V42.1053C38.6842 44.1991 37.8685 46.2066 36.4176 47.6871C34.9666 49.1676 32.9993 50 30.9474 50H7.73684C5.6849 50 3.71759 49.1676 2.26665 47.6871C0.815714 46.2066 0 44.1991 0 42.1053Z" fill="white"/>
<path d="M43.8421 8.15939C43.8421 7.39159 43.5431 6.65411 43.011 6.11119C42.4792 5.5686 41.7583 5.2634 41.0063 5.26313C40.2538 5.26313 39.5311 5.56827 38.999 6.11119L38.9965 6.11376L37.2084 7.93067L41.2254 12.0296L43.011 10.205C43.5428 9.6624 43.8418 8.92674 43.8421 8.15939ZM18.0526 27.4078V31.5788H22.1402L37.5861 15.7585L33.554 11.6442L18.0526 27.4078ZM49 8.15939C48.9997 10.3208 48.1571 12.3918 46.6603 13.9211L43.3888 17.2722C43.3 17.4044 43.2016 17.5325 43.0866 17.65C42.9763 17.7625 42.855 17.8577 42.7314 17.9455L25.0364 36.0684C24.5526 36.5635 23.8958 36.8419 23.2105 36.8419H15.4737C14.0494 36.8419 12.8947 35.6637 12.8947 34.2103V26.3156C12.8948 25.6165 13.1676 24.9461 13.6528 24.4525L31.4032 6.40159C31.4907 6.27247 31.5903 6.14903 31.7029 6.03409C31.8183 5.91634 31.9432 5.8139 32.0731 5.72314L35.3547 2.38742C36.8539 0.859014 38.887 -2.79068e-08 41.0063 0C43.1263 0.000272466 45.1587 0.860379 46.6578 2.38999C48.1571 3.91994 49 5.99572 49 8.15939Z" fill="white"/>
</svg>
