<svg width="500" height="500" viewBox="0 0 500 500" fill="none" xmlns="http://www.w3.org/2000/svg">
<g clip-path="url(#clip0_53_7)">
<path d="M-5.52486 -5.5249H500V500H-5.52486V-5.5249Z" fill="#003D76"/>
<path d="M117.735 309.144H142.293V229.42H177.569V206.906H142.293V147.762H181.851V125.497H117.735V309.144ZM240.276 161.851C215.718 161.851 200.884 176.188 200.884 201.271V271.961C200.884 297.017 215.718 311.381 240.276 311.381C264.834 311.381 279.668 297.017 279.668 271.961V201.271C279.668 176.188 264.807 161.851 240.276 161.851ZM255.414 270.552C255.414 283.508 249.392 289.696 240.276 289.696C231.16 289.696 225.138 283.508 225.138 270.552V202.68C225.138 189.724 231.133 183.536 240.276 183.536C249.42 183.536 255.414 189.724 255.414 202.68V270.552ZM358.37 173.646C355.608 166.326 345.829 161.823 336.961 161.823C313.84 161.823 303.011 175.884 303.011 201.243V271.934C303.011 297.265 313.84 311.354 336.961 311.354C345.249 311.354 354.945 306.575 357.514 300.083V323.177C357.514 336.133 351.823 342.348 342.68 342.348C333.536 342.348 327.845 336.133 327.845 323.177V320.663H303.674V324.586C303.674 349.668 318.232 364.033 342.762 364.033C367.293 364.033 381.851 349.668 381.851 324.586V164.088H358.37V173.646ZM357.514 270.525C357.514 283.481 351.519 289.668 342.403 289.668C333.287 289.668 327.265 283.481 327.265 270.525V202.68C327.265 189.724 333.26 183.536 342.403 183.536C351.547 183.536 357.514 189.724 357.514 202.68V270.525ZM414.171 179.171C413.89 178.345 413.416 177.597 412.79 176.989C412.29 176.521 411.697 176.163 411.05 175.939C412.086 175.743 413.045 175.254 413.812 174.53C414.481 173.769 414.837 172.781 414.807 171.768C414.822 171.064 414.68 170.366 414.392 169.724C414.111 169.144 413.682 168.649 413.149 168.287C412.523 167.884 411.831 167.594 411.105 167.431C410.194 167.265 409.269 167.182 408.343 167.182H403.867C403.634 167.167 403.401 167.2 403.182 167.281C402.963 167.362 402.763 167.489 402.597 167.652C402.289 168.023 402.132 168.496 402.155 168.978V182.79C402.155 183.052 402.32 183.287 402.569 183.37C403.091 183.453 403.622 183.453 404.144 183.37C404.655 183.453 405.18 183.453 405.691 183.37C405.799 183.319 405.889 183.236 405.948 183.133C406.008 183.029 406.033 182.909 406.022 182.79V177.265H407.072C407.754 177.207 408.433 177.404 408.978 177.818C409.525 178.359 409.917 179.033 410.111 179.779L410.912 182.541C410.945 182.714 411.021 182.875 411.133 183.011L411.296 183.191L411.519 183.287H415.055C415.221 183.287 415.331 183.287 415.359 183.094C415.386 182.994 415.386 182.889 415.359 182.79C415.31 182.412 415.217 182.042 415.083 181.685L414.171 179.171ZM409.945 173.646C409.301 174.121 408.503 174.338 407.707 174.254H405.884V170.11H407.68C408.127 170.112 408.572 170.168 409.006 170.276C409.334 170.327 409.64 170.471 409.89 170.691C410.102 170.872 410.256 171.112 410.331 171.381C410.373 171.647 410.373 171.917 410.331 172.182C410.342 172.479 410.29 172.774 410.181 173.05C410.072 173.325 409.907 173.576 409.696 173.784" fill="white"/>
<path d="M422.293 169.613C421.569 167.849 420.496 166.25 419.138 164.911C417.781 163.572 416.166 162.522 414.392 161.823C412.446 161.069 410.374 160.694 408.287 160.718C406.232 160.702 404.194 161.097 402.293 161.878C400.488 162.589 398.845 163.654 397.459 165.012C396.074 166.369 394.975 167.99 394.227 169.779C393.421 171.625 393.016 173.621 393.039 175.635C393.011 177.68 393.398 179.71 394.171 181.602C394.878 183.366 395.94 184.964 397.293 186.298C398.662 187.646 400.287 188.708 402.072 189.42C404.009 190.172 406.072 190.547 408.149 190.525C410.196 190.543 412.225 190.149 414.116 189.365C415.928 188.633 417.58 187.554 418.978 186.188C420.385 184.798 421.501 183.142 422.26 181.316C423.019 179.489 423.406 177.53 423.398 175.552C423.422 173.519 423.046 171.502 422.293 169.613ZM419.088 180.331C418.539 181.705 417.733 182.962 416.713 184.033C415.66 185.118 414.402 185.982 413.011 186.575C409.964 187.763 406.583 187.763 403.536 186.575C402.144 186.023 400.883 185.185 399.834 184.116C398.786 183.014 397.96 181.719 397.403 180.304C396.816 178.732 396.526 177.065 396.547 175.387C396.544 173.839 396.825 172.303 397.376 170.856C397.905 169.456 398.713 168.178 399.751 167.099C400.804 166.022 402.064 165.166 403.453 164.586C404.985 163.955 406.631 163.644 408.287 163.674C409.871 163.673 411.443 163.954 412.928 164.503C414.34 165.073 415.614 165.937 416.666 167.037C417.719 168.137 418.526 169.449 419.033 170.884C419.641 172.459 419.945 174.138 419.917 175.829C419.918 177.386 419.637 178.93 419.088 180.387" fill="white"/>
<path d="M111.114 427.75H101.159C100.977 426.462 100.606 425.318 100.045 424.318C99.4849 423.303 98.7652 422.439 97.8864 421.727C97.0076 421.015 95.9924 420.47 94.8409 420.091C93.7045 419.712 92.4697 419.523 91.1364 419.523C88.7273 419.523 86.6288 420.121 84.8409 421.318C83.053 422.5 81.6667 424.227 80.6818 426.5C79.697 428.758 79.2045 431.5 79.2045 434.727C79.2045 438.045 79.697 440.833 80.6818 443.091C81.6818 445.348 83.0758 447.053 84.8636 448.204C86.6515 449.356 88.7197 449.932 91.0682 449.932C92.3864 449.932 93.6061 449.758 94.7273 449.409C95.8636 449.061 96.8712 448.553 97.75 447.886C98.6288 447.204 99.3561 446.379 99.9318 445.409C100.523 444.439 100.932 443.333 101.159 442.091L111.114 442.136C110.856 444.273 110.212 446.333 109.182 448.318C108.167 450.288 106.795 452.053 105.068 453.614C103.356 455.159 101.311 456.386 98.9318 457.295C96.5682 458.189 93.8939 458.636 90.9091 458.636C86.7576 458.636 83.0455 457.697 79.7727 455.818C76.5152 453.939 73.9394 451.22 72.0455 447.659C70.1667 444.098 69.2273 439.788 69.2273 434.727C69.2273 429.651 70.1818 425.333 72.0909 421.773C74 418.212 76.5909 415.5 79.8636 413.636C83.1364 411.758 86.8182 410.818 90.9091 410.818C93.6061 410.818 96.1061 411.197 98.4091 411.954C100.727 412.712 102.78 413.818 104.568 415.273C106.356 416.712 107.811 418.477 108.932 420.568C110.068 422.659 110.795 425.053 111.114 427.75Z" fill="white"/>
<path d="M134.286 458H126.376L138.428 423.091H147.939L159.973 458H152.064L143.32 431.068H143.047L134.286 458ZM133.791 444.278H152.473V450.04H133.791V444.278Z" fill="white"/>
<path d="M175.284 458V423.091H189.057C191.693 423.091 193.943 423.562 195.807 424.506C197.682 425.437 199.108 426.761 200.085 428.477C201.074 430.182 201.568 432.187 201.568 434.494C201.568 436.812 201.068 438.807 200.068 440.477C199.068 442.136 197.619 443.409 195.722 444.295C193.835 445.182 191.551 445.625 188.869 445.625H179.648V439.693H187.676C189.085 439.693 190.256 439.5 191.188 439.114C192.119 438.727 192.812 438.148 193.267 437.375C193.733 436.602 193.966 435.642 193.966 434.494C193.966 433.335 193.733 432.358 193.267 431.562C192.812 430.767 192.114 430.165 191.17 429.756C190.239 429.335 189.062 429.125 187.642 429.125H182.665V458H175.284ZM194.136 442.114L202.812 458H194.665L186.176 442.114H194.136Z" fill="white"/>
<path d="M217.893 458V423.091H231.666C234.314 423.091 236.57 423.597 238.433 424.608C240.297 425.608 241.717 427 242.695 428.784C243.683 430.557 244.178 432.602 244.178 434.92C244.178 437.239 243.678 439.284 242.678 441.057C241.678 442.829 240.229 444.21 238.331 445.199C236.445 446.187 234.161 446.682 231.479 446.682H222.7V440.767H230.286C231.706 440.767 232.876 440.523 233.797 440.034C234.729 439.534 235.422 438.847 235.876 437.972C236.342 437.085 236.575 436.068 236.575 434.92C236.575 433.761 236.342 432.75 235.876 431.886C235.422 431.011 234.729 430.335 233.797 429.858C232.865 429.369 231.683 429.125 230.251 429.125H225.274V458H217.893Z" fill="white"/>
<path d="M292.161 440.545C292.161 444.352 291.439 447.591 289.996 450.261C288.564 452.932 286.609 454.972 284.132 456.381C281.666 457.778 278.893 458.477 275.814 458.477C272.712 458.477 269.928 457.773 267.462 456.364C264.996 454.954 263.047 452.915 261.615 450.244C260.183 447.574 259.467 444.341 259.467 440.545C259.467 436.739 260.183 433.5 261.615 430.829C263.047 428.159 264.996 426.125 267.462 424.727C269.928 423.318 272.712 422.614 275.814 422.614C278.893 422.614 281.666 423.318 284.132 424.727C286.609 426.125 288.564 428.159 289.996 430.829C291.439 433.5 292.161 436.739 292.161 440.545ZM284.678 440.545C284.678 438.079 284.308 436 283.57 434.307C282.842 432.614 281.814 431.329 280.484 430.454C279.155 429.579 277.598 429.142 275.814 429.142C274.03 429.142 272.473 429.579 271.143 430.454C269.814 431.329 268.78 432.614 268.041 434.307C267.314 436 266.95 438.079 266.95 440.545C266.95 443.011 267.314 445.091 268.041 446.784C268.78 448.477 269.814 449.761 271.143 450.636C272.473 451.511 274.03 451.949 275.814 451.949C277.598 451.949 279.155 451.511 280.484 450.636C281.814 449.761 282.842 448.477 283.57 446.784C284.308 445.091 284.678 443.011 284.678 440.545Z" fill="white"/>
<path d="M308.737 458V423.091H322.51C325.146 423.091 327.396 423.562 329.26 424.506C331.135 425.437 332.561 426.761 333.538 428.477C334.527 430.182 335.021 432.187 335.021 434.494C335.021 436.812 334.521 438.807 333.521 440.477C332.521 442.136 331.072 443.409 329.175 444.295C327.288 445.182 325.004 445.625 322.322 445.625H313.101V439.693H321.129C322.538 439.693 323.709 439.5 324.641 439.114C325.572 438.727 326.266 438.148 326.72 437.375C327.186 436.602 327.419 435.642 327.419 434.494C327.419 433.335 327.186 432.358 326.72 431.562C326.266 430.767 325.567 430.165 324.624 429.756C323.692 429.335 322.516 429.125 321.095 429.125H316.118V458H308.737ZM327.589 442.114L336.266 458H328.118L319.629 442.114H327.589Z" fill="white"/>
<path d="M350.017 429.176V423.091H378.688V429.176H368V458H360.705V429.176H350.017Z" fill="white"/>
<path d="M395.53 458V411.454H426.893V419.568H405.371V430.659H425.28V438.773H405.371V449.886H426.984V458H395.53Z" fill="white"/>
</g>
<defs>
<clipPath id="clip0_53_7">
<rect width="500" height="500" fill="white"/>
</clipPath>
</defs>
</svg>
