<svg width="46" height="50" viewBox="0 0 46 50" fill="none" xmlns="http://www.w3.org/2000/svg">
<path d="M0 45.3947V42.1155C0.000115142 37.4251 3.29356 33.6035 7.50067 31.0701C11.766 28.5017 17.3801 26.9737 23 26.9737C28.6195 26.9737 34.2354 28.5021 38.5019 31.0701C42.709 33.6026 46.0052 37.424 46 42.1155V45.3947C46 46.6161 45.515 47.7871 44.6523 48.6508C43.7897 49.5145 42.62 50 41.4 50H4.6C3.38001 50 2.21033 49.5145 1.34766 48.6508C0.484989 47.7871 0 46.6161 0 45.3947ZM30.5007 11.4566C30.5003 9.46547 29.7121 7.55534 28.3059 6.1472C27.075 4.91484 25.4591 4.15412 23.7418 3.98335L23 3.94737C21.0104 3.94737 19.101 4.73871 17.6941 6.1472C16.2879 7.55534 15.4997 9.46547 15.4993 11.4566C15.4993 12.4429 15.6922 13.4211 16.0692 14.3323C16.4461 15.2432 16.9978 16.0714 17.6941 16.7686C18.3907 17.466 19.22 18.0205 20.1301 18.3979C21.0399 18.775 22.0153 18.9684 23 18.9684C23.9847 18.9684 24.96 18.775 25.8699 18.3979C26.78 18.0205 27.6093 17.466 28.3059 16.7686C29.0022 16.0714 29.5539 15.2432 29.9308 14.3323C30.3078 13.4211 30.5007 12.4429 30.5007 11.4566ZM3.94286 45.3947C3.94286 45.5692 4.01214 45.7365 4.13538 45.8599C4.25861 45.9833 4.42571 46.0526 4.6 46.0526H41.4C41.5743 46.0526 41.7414 45.9833 41.8646 45.8599C41.9878 45.7365 42.0571 45.5692 42.0571 45.3947V42.113C42.061 39.4219 40.1342 36.6597 36.4714 34.4547C32.8668 32.2848 27.9628 30.9211 23 30.9211C18.0373 30.9211 13.137 32.2849 9.5337 34.4547C5.87244 36.6594 3.94297 39.422 3.94286 42.1155V45.3947ZM34.4435 11.4566C34.4435 12.9613 34.1485 14.4533 33.5733 15.8434C32.9983 17.233 32.1559 18.4959 31.0936 19.5595C30.0309 20.6235 28.7678 21.4688 27.3792 22.0446C25.9909 22.6202 24.5027 22.9158 23 22.9158C21.4973 22.9158 20.0091 22.6202 18.6208 22.0446C17.2322 21.4688 15.9691 20.6235 14.9064 19.5595C13.8441 18.4959 13.0017 17.233 12.4267 15.8434C11.8515 14.4533 11.5565 12.9613 11.5565 11.4566C11.5568 8.41856 12.7607 5.5047 14.9064 3.35629C17.0527 1.20752 19.9646 0 23 0C26.0353 0 28.9473 1.20752 31.0936 3.35629C33.2392 5.5047 34.4432 8.41856 34.4435 11.4566Z" fill="black"/>
</svg>
