<svg width="50" height="50" viewBox="0 0 50 50" fill="none" xmlns="http://www.w3.org/2000/svg">
<path d="M25 50C18.0208 50 12.1094 47.5781 7.26562 42.7344C2.42187 37.8906 0 31.9792 0 25C0 18.0208 2.42187 12.1094 7.26562 7.26563C12.1094 2.42188 18.0208 1.07758e-05 25 1.07758e-05C28.5937 1.07758e-05 32.0312 0.741677 35.3125 2.22501C38.5937 3.70834 41.4062 5.83126 43.75 8.59376V3.12501C43.75 2.23959 44.05 1.49793 44.65 0.900011C45.25 0.302094 45.9916 0.00209411 46.875 1.07758e-05C47.7583 -0.00207256 48.501 0.297928 49.1031 0.900011C49.7052 1.50209 50.0041 2.24376 50 3.12501V18.75C50 19.6354 49.7 20.3781 49.1 20.9781C48.5 21.5781 47.7583 21.8771 46.875 21.875H31.25C30.3646 21.875 29.6229 21.575 29.025 20.975C28.4271 20.375 28.1271 19.6333 28.125 18.75C28.1229 17.8667 28.4229 17.125 29.025 16.525C29.6271 15.925 30.3687 15.625 31.25 15.625H41.25C39.5833 12.7083 37.3052 10.4167 34.4156 8.75001C31.526 7.08334 28.3875 6.25001 25 6.25001C19.7917 6.25001 15.3646 8.07293 11.7187 11.7188C8.07291 15.3646 6.24999 19.7917 6.24999 25C6.24999 30.2083 8.07291 34.6354 11.7187 38.2813C15.3646 41.9271 19.7917 43.75 25 43.75C28.5416 43.75 31.7843 42.8521 34.7281 41.0563C37.6718 39.2604 39.95 36.851 41.5625 33.8281C41.9791 33.099 42.5656 32.5917 43.3218 32.3063C44.0781 32.0208 44.8458 32.0073 45.625 32.2656C46.4583 32.526 47.0573 33.0729 47.4218 33.9063C47.7864 34.7396 47.7604 35.5208 47.3437 36.25C45.2083 40.4167 42.1614 43.75 38.2031 46.25C34.2448 48.75 29.8437 50 25 50Z" fill="white"/>
</svg>
