<svg width="45" height="50" viewBox="0 0 45 50" fill="none" xmlns="http://www.w3.org/2000/svg">
<path d="M39.2061 38.4357C39.088 37.238 38.5616 36.1124 37.7097 35.2539C36.7359 34.2726 35.4156 33.7209 34.0386 33.7209C32.6615 33.7209 31.3412 34.2726 30.3674 35.2539C29.3937 36.2352 28.8462 37.5657 28.8462 38.9535C28.8462 40.3412 29.3937 41.6718 30.3674 42.6531C31.3412 43.6344 32.6615 44.186 34.0386 44.186L34.5524 44.1611C35.7408 44.042 36.8578 43.5116 37.7097 42.6531C38.6834 41.6718 39.2309 40.3412 39.2309 38.9535L39.2061 38.4357ZM42.6812 39.385C42.6041 40.954 42.1077 42.464 41.2569 43.7614L44.4931 47.0226C45.169 47.7038 45.169 48.8079 44.4931 49.489C43.8172 50.1702 42.7216 50.1702 42.0456 49.489L38.8095 46.2277C37.5221 47.0852 36.0237 47.5854 34.4667 47.6631L34.0386 47.6744C31.7434 47.6744 29.5429 46.7549 27.92 45.1195C26.2971 43.484 25.3847 41.2664 25.3847 38.9535C25.3847 36.6406 26.2971 34.423 27.92 32.7875C29.5429 31.152 31.7434 30.2326 34.0386 30.2326C36.3337 30.2326 38.5342 31.152 40.1571 32.7875C41.78 34.423 42.6924 36.6406 42.6924 38.9535L42.6812 39.385Z" fill="white"/>
<path d="M36.9232 25V10.6059L29.8604 3.48837H3.46155V46.5116H17.8847C18.8405 46.5116 19.6154 47.2925 19.6154 48.2558C19.6154 49.2191 18.8405 50 17.8847 50H3.11449C2.28857 49.9998 1.49675 49.6688 0.912713 49.0802C0.328675 48.4916 0.000238871 47.6937 0 46.8614V3.13863C0.000238581 2.3063 0.328676 1.50835 0.912713 0.919786C1.49675 0.331223 2.28856 0.00024043 3.11449 0H30.0068L30.3133 0.0158975C31.0259 0.0876556 31.6956 0.405053 32.2064 0.919786L39.4698 8.23946C39.6875 8.45866 39.8729 8.70949 40.0174 8.9821L40.1481 9.26145L40.2518 9.55214C40.3403 9.84686 40.3848 10.1538 40.3847 10.4628V25C40.3847 25.9633 39.6098 26.7442 38.654 26.7442C37.6981 26.7442 36.9232 25.9633 36.9232 25Z" fill="white"/>
<path d="M27.6924 1.74419C27.6924 0.780899 28.4673 0 29.4232 0C30.379 0 31.1539 0.780899 31.1539 1.74419V9.30233H38.654C39.6098 9.30233 40.3847 10.0832 40.3847 11.0465C40.3847 12.0098 39.6098 12.7907 38.654 12.7907H30.8069C29.981 12.7905 29.1891 12.4595 28.6051 11.8709C28.0211 11.2823 27.6926 10.4844 27.6924 9.65207V1.74419Z" fill="white"/>
</svg>
